<?xml version="1.0" standalone="no"?>
<!DOCTYPE svg PUBLIC "-//W3C//DTD SVG 20010904//EN"
 "http://www.w3.org/TR/2001/REC-SVG-20010904/DTD/svg10.dtd">
<svg version="1.0" xmlns="http://www.w3.org/2000/svg"
 width="1193.000000pt" height="851.000000pt" viewBox="0 0 1193.000000 851.000000"
 preserveAspectRatio="xMidYMid meet">
<metadata>
Created by potrace 1.16, written by Peter Selinger 2001-2019
</metadata>
<g transform="translate(0.000000,851.000000) scale(0.100000,-0.100000)"
fill="#000000" stroke="none">
<path d="M6135 8426 c-28 -13 -131 -69 -230 -125 -98 -55 -182 -101 -186 -101
-4 0 -42 -20 -83 -45 -42 -25 -79 -45 -82 -45 -2 0 -116 -67 -252 -148 -136
-82 -283 -168 -327 -192 -44 -24 -166 -98 -270 -165 -105 -67 -209 -132 -232
-144 -47 -27 -73 -65 -56 -82 6 -6 9 -17 7 -24 -11 -27 134 -34 193 -10 19 8
44 15 54 15 11 0 19 7 19 17 0 14 3 13 20 -5 29 -30 100 -32 100 -2 0 25 9 25
68 0 49 -20 153 -52 332 -101 167 -45 271 -82 280 -99 6 -14 -10 -294 -40
-680 -10 -132 -24 -220 -35 -220 -7 0 -101 57 -157 95 -84 56 -135 45 -267
-63 l-43 -35 5 -54 c3 -30 12 -65 20 -77 8 -12 20 -39 25 -59 10 -37 10 -37
-20 -37 -17 0 -54 7 -83 16 -51 16 -52 16 -129 -12 -43 -16 -93 -42 -112 -57
l-34 -28 -1 -102 c0 -56 -4 -124 -7 -152 l-7 -50 -90 -27 c-49 -15 -132 -42
-183 -59 -52 -17 -96 -28 -99 -25 -3 2 2 209 11 458 9 249 16 490 16 534 l0
82 -82 11 c-106 14 -242 29 -245 27 -9 -7 -25 -282 -33 -600 -14 -498 -21
-575 -54 -648 -22 -49 -31 -58 -68 -71 -271 -94 -357 -126 -441 -164 -99 -44
-187 -65 -187 -45 0 7 17 20 38 31 34 18 141 120 143 138 1 4 3 23 5 40 2 18
22 115 44 215 48 214 80 404 80 470 0 42 -3 47 -29 56 -19 7 -41 31 -67 72
-58 93 -100 137 -150 156 -39 15 -52 15 -102 4 -69 -15 -79 -22 -87 -63 -4
-18 -17 -66 -30 -107 -13 -41 -31 -115 -40 -165 -9 -49 -36 -178 -60 -285 -24
-107 -50 -229 -59 -271 -23 -104 -29 -110 -117 -123 l-74 -12 -31 -51 c-17
-28 -36 -75 -42 -105 -22 -97 -37 -262 -35 -368 7 -274 6 -306 -16 -415 -37
-188 -44 -208 -92 -235 l-42 -23 -296 7 c-273 6 -298 8 -323 26 -18 13 -43 20
-73 20 -40 0 -47 -3 -56 -27 -6 -16 -7 -41 -3 -58 4 -16 8 -70 9 -119 1 -66
-2 -89 -12 -93 -7 -3 -42 2 -77 11 -61 15 -262 47 -641 101 -93 14 -262 38
-375 55 -113 17 -221 31 -239 33 l-35 2 -12 -73 c-7 -40 -22 -168 -34 -285
-29 -292 -34 -316 -72 -329 -17 -6 -34 -21 -39 -37 -23 -58 -49 -225 -59 -376
-6 -88 -20 -238 -30 -332 -17 -146 -20 -241 -20 -607 l0 -433 92 -7 c50 -4
101 -12 112 -18 13 -7 96 -12 221 -13 261 -2 537 -15 551 -26 6 -5 53 -14 105
-19 52 -6 114 -13 139 -16 38 -5 49 -2 70 18 24 23 24 23 300 20 151 -1 288
-5 304 -8 l28 -6 -8 -107 c-5 -58 -9 -151 -9 -206 l0 -100 57 -15 58 -14 -7
-56 c-3 -30 -10 -64 -16 -75 -16 -30 -10 -79 14 -119 23 -40 45 -48 219 -86
52 -11 105 -22 118 -25 12 -3 28 -17 34 -30 6 -14 17 -25 24 -25 6 0 14 -6 17
-14 7 -19 92 -36 144 -29 36 5 47 1 73 -21 34 -28 36 -29 92 -26 23 1 48 -6
65 -18 30 -22 139 -37 148 -21 10 14 63 10 90 -7 13 -9 28 -13 33 -10 5 3 30
0 56 -8 39 -12 47 -12 57 1 15 17 65 9 93 -16 13 -12 47 -18 133 -22 94 -5
120 -10 143 -27 23 -18 33 -19 63 -11 37 10 78 3 152 -25 24 -9 55 -13 77 -9
20 3 57 -1 85 -10 26 -9 79 -19 117 -22 38 -4 77 -11 85 -15 9 -4 48 -13 88
-19 39 -6 87 -20 105 -31 18 -11 43 -24 56 -30 32 -14 102 -2 128 22 38 34
114 21 114 -18 0 -23 39 -32 123 -29 66 2 80 -1 91 -16 15 -22 76 -49 110 -49
15 0 38 13 56 30 36 35 60 38 86 9 30 -34 71 -50 130 -52 40 -1 58 2 64 13 5
8 16 24 24 35 15 20 16 20 39 -9 26 -32 111 -60 137 -46 10 6 22 2 35 -10 17
-15 45 -19 165 -25 80 -4 152 -6 160 -6 8 1 44 3 80 4 36 2 86 11 111 21 44
17 49 17 72 1 17 -11 27 -13 32 -6 13 22 95 51 142 51 59 0 178 46 245 95 40
29 96 105 111 150 2 6 33 10 68 10 46 1 72 6 92 19 31 21 137 175 137 200 0
13 19 15 153 11 83 -3 175 -7 203 -11 38 -4 55 -1 66 10 11 11 42 14 124 14
60 1 127 5 149 11 22 5 77 8 123 5 52 -4 87 -2 95 5 20 16 452 10 469 -6 17
-18 97 -16 131 2 15 8 60 17 100 19 40 3 106 10 147 16 41 5 170 12 286 15
116 2 221 8 234 13 13 5 44 5 69 1 44 -7 143 -13 168 -10 6 0 24 26 40 57 15
31 46 73 68 93 22 21 71 67 108 102 79 73 181 223 281 413 76 142 96 203 96
289 0 38 9 82 27 130 23 61 28 88 28 173 1 119 -20 84 197 328 185 207 247
294 338 474 63 124 72 147 67 179 -4 21 -15 49 -25 63 -16 22 -20 53 -26 249
-3 123 -9 227 -11 232 -3 4 -26 1 -50 -8 l-45 -15 0 -220 c0 -120 5 -261 11
-312 11 -88 11 -96 -9 -137 -12 -24 -56 -87 -99 -140 -43 -53 -115 -143 -160
-200 -45 -57 -110 -131 -145 -163 -35 -33 -89 -84 -120 -115 l-57 -55 -22 20
c-28 25 -71 122 -64 145 4 10 26 45 49 77 67 91 71 99 71 192 1 92 21 549 35
800 5 85 16 187 25 225 24 98 16 258 -19 389 -14 55 -29 103 -33 107 -5 4 -84
12 -178 19 -93 6 -231 20 -305 31 -74 11 -243 24 -375 30 -132 6 -245 12 -251
14 -14 4 20 146 44 187 10 17 43 42 81 61 94 47 94 48 88 240 -4 128 -11 193
-35 307 -41 195 -90 496 -94 585 -3 45 -1 50 17 48 11 -1 99 -7 195 -12 96 -6
231 -18 300 -26 69 -8 140 -15 159 -15 21 0 43 -8 56 -20 31 -29 88 -37 119
-16 31 20 68 20 121 2 22 -8 100 -17 172 -21 122 -7 135 -9 159 -32 23 -21 33
-24 68 -19 23 4 70 9 106 12 61 5 68 4 115 -28 47 -31 55 -33 136 -33 55 0 95
5 113 14 22 12 44 13 134 3 59 -6 145 -14 192 -18 145 -10 356 -58 416 -95 39
-24 64 -82 64 -148 0 -32 10 -70 31 -116 59 -130 109 -299 109 -367 0 -75 -42
-220 -75 -262 -22 -27 -23 -28 -53 -12 -16 8 -60 56 -96 105 -49 67 -73 92
-98 100 -38 12 -313 45 -508 61 -74 6 -154 14 -177 17 -42 5 -42 5 -67 -45
-14 -28 -31 -80 -38 -116 -7 -36 -18 -66 -24 -66 -27 0 -83 51 -132 120 -29
41 -68 92 -87 112 l-35 38 -152 -1 c-117 0 -173 5 -238 19 -47 11 -114 20
-150 21 -35 1 -116 9 -180 17 -142 19 -212 19 -251 -2 -22 -11 -29 -21 -27
-37 3 -19 12 -23 68 -30 36 -4 117 -17 182 -28 64 -10 136 -19 160 -19 23 0
81 -12 128 -25 62 -19 125 -28 232 -34 80 -5 156 -15 168 -21 12 -6 31 -33 42
-58 13 -29 46 -71 87 -109 l66 -62 1 -183 c0 -101 4 -191 8 -201 9 -19 45 -37
72 -37 16 0 28 24 44 87 14 54 55 94 95 92 31 -2 118 21 155 41 16 8 60 8 177
0 140 -10 157 -10 165 4 11 20 27 20 42 2 9 -12 55 -16 211 -21 235 -8 232
-10 285 102 38 81 160 419 160 444 0 10 -10 34 -22 54 -11 20 -27 60 -34 88
-7 29 -24 79 -37 112 -14 33 -44 141 -66 240 -23 99 -48 204 -57 233 l-15 52
-87 -1 c-48 -1 -123 3 -167 9 -44 7 -156 19 -250 28 -196 18 -223 28 -242 89
-6 22 -12 89 -12 148 -1 130 -13 153 -100 196 -31 15 -101 54 -156 87 -55 33
-210 116 -345 183 -135 68 -263 134 -285 146 -128 73 -450 235 -467 235 -12 0
-48 -26 -84 -60 -49 -47 -69 -60 -93 -60 -20 0 -103 36 -219 94 -209 105 -311
151 -360 161 -68 14 -174 -60 -223 -156 -24 -48 -21 -99 17 -251 13 -53 24
-116 24 -140 0 -66 -26 -148 -57 -180 -28 -30 -131 -88 -155 -88 -7 0 -55 -20
-107 -44 -58 -28 -100 -42 -110 -38 -42 17 -191 139 -203 167 -12 30 -13 52
-4 950 l1 140 78 95 c43 52 89 118 103 147 26 51 26 54 22 250 -4 207 -12 247
-55 285 -22 19 -406 130 -893 258 -210 55 -518 143 -695 200 -122 39 -309 94
-355 104 -16 3 -45 -4 -75 -18z m207 -125 c35 -14 355 -114 513 -161 77 -23
201 -60 275 -82 74 -22 162 -46 194 -54 88 -21 378 -103 401 -113 11 -5 43
-13 70 -17 45 -8 50 -12 53 -37 6 -52 0 -56 -60 -42 -29 7 -98 27 -153 43
-359 106 -462 137 -650 192 -462 135 -513 151 -595 178 -83 28 -85 30 -91 65
-6 40 1 45 43 28z m-243 -194 l1 -107 -81 -63 c-44 -34 -129 -102 -187 -152
-59 -49 -119 -99 -135 -110 -26 -19 -26 -21 -11 -50 20 -38 14 -117 -10 -144
-13 -14 -15 -24 -8 -36 9 -17 15 -7 46 65 3 8 4 -12 1 -45 -3 -33 -15 -78 -25
-101 -24 -49 -26 -112 -3 -158 14 -30 15 -49 5 -152 -7 -76 -15 -120 -24 -126
-10 -7 -9 -11 5 -19 17 -10 18 -20 13 -93 -12 -142 -33 -380 -35 -393 -1 -2
-12 -3 -25 -3 -27 0 -42 -15 -27 -25 6 -3 8 -11 6 -18 -2 -7 4 -28 13 -47 13
-27 25 -36 52 -40 51 -9 60 -17 60 -55 0 -55 -16 -85 -45 -85 -28 0 -143 73
-152 96 -3 8 0 43 7 77 6 34 14 87 16 117 7 98 27 214 46 269 23 70 23 95 -2
112 -23 15 -23 2 10 214 5 33 10 106 10 162 0 56 5 114 11 130 31 79 0 283
-45 291 -10 2 -46 -10 -80 -27 -52 -26 -82 -33 -206 -46 -80 -9 -182 -22 -226
-30 -108 -20 -237 -20 -254 0 -16 20 -10 27 81 90 85 58 95 62 101 43 5 -14
44 10 108 65 25 21 90 66 145 99 55 33 136 82 180 108 90 55 100 59 84 29 -20
-39 -15 -130 10 -171 28 -47 57 -49 121 -8 25 16 73 45 107 65 57 33 133 104
133 123 0 16 -85 94 -112 104 -16 6 -28 13 -28 17 0 3 75 48 168 99 l167 92 6
-27 c4 -16 7 -76 8 -136z m431 -78 c319 -92 441 -129 630 -191 85 -27 206 -63
268 -79 111 -28 193 -70 206 -105 8 -21 26 -17 26 6 0 11 3 20 8 20 19 -1 134
-28 139 -33 3 -3 -1 -39 -8 -79 -7 -40 -13 -76 -13 -80 -2 -17 -20 -15 -141
16 -134 34 -493 138 -542 157 -15 6 -109 35 -208 65 -355 106 -582 193 -627
238 -26 25 -26 136 -1 136 9 0 128 -32 263 -71z m-410 -189 c0 -21 -43 -95
-66 -112 -32 -26 -43 -71 -54 -238 -5 -80 -12 -170 -15 -200 -5 -56 -29 -681
-40 -1061 l-6 -206 23 -7 c13 -4 113 -11 223 -15 l200 -7 90 -48 c50 -27 106
-63 125 -81 19 -17 64 -46 98 -63 58 -29 66 -31 90 -19 15 8 64 33 109 56 140
72 312 101 420 72 23 -6 93 -11 155 -10 84 1 125 -3 158 -16 80 -29 103 -33
243 -39 78 -3 145 -10 152 -16 7 -6 19 -43 25 -81 10 -57 9 -73 -2 -88 -7 -11
-40 -55 -74 -98 -44 -59 -76 -116 -119 -217 -32 -76 -66 -147 -75 -159 -27
-33 -122 -33 -345 -3 -104 15 -244 31 -310 37 -117 10 -120 11 -154 45 -19 19
-45 34 -57 34 -37 0 -68 16 -106 54 -43 43 -63 45 -82 9 -8 -16 -31 -44 -51
-63 l-36 -35 -107 0 c-140 0 -237 20 -272 54 -25 24 -71 113 -68 129 4 19 -17
42 -38 42 -32 0 -38 -18 -19 -63 8 -20 15 -48 15 -62 0 -22 -4 -25 -33 -25
-17 0 -47 4 -65 9 -27 8 -36 7 -53 -10 -37 -37 -119 -19 -119 26 0 39 68 62
99 33 11 -11 12 -8 7 17 -9 36 -64 122 -115 179 -66 72 -151 188 -145 197 3 5
31 22 63 38 31 16 74 48 95 71 41 46 42 71 5 135 -14 24 -17 39 -11 56 11 28
-1 193 -16 230 -5 14 -22 43 -36 64 -23 33 -26 48 -25 119 1 149 36 651 47
679 7 17 9 55 6 100 -8 92 11 326 30 371 8 19 34 49 61 67 26 19 71 55 101 82
54 47 74 57 74 37z m1880 -23 c34 -17 52 -59 58 -138 7 -102 -20 -104 -77 -6
-16 29 -43 66 -59 83 -26 26 -38 58 -33 85 1 9 78 -8 111 -24z m-1592 -88 c46
-19 97 -32 127 -33 39 -1 62 -9 100 -34 32 -21 61 -32 84 -32 41 0 174 -41
235 -72 22 -11 65 -29 95 -39 31 -11 69 -33 86 -49 16 -16 56 -43 89 -59 56
-30 62 -31 137 -25 48 4 79 3 79 -3 0 -5 -20 -33 -45 -62 -47 -55 -51 -69 -34
-140 13 -56 -2 -96 -44 -118 -22 -11 -101 -21 -263 -33 -283 -22 -368 -17
-468 28 -37 18 -122 45 -187 62 -166 42 -248 76 -255 106 -3 13 1 73 10 133 9
60 16 141 16 180 0 63 3 72 23 86 13 8 29 26 35 39 16 35 72 96 89 96 8 0 49
-14 91 -31z m1296 -400 c6 -5 1 -40 -12 -87 -12 -44 -22 -107 -22 -140 0 -83
-27 -93 -46 -17 -4 17 -16 42 -26 56 -26 34 -25 101 1 161 20 46 20 47 58 41
21 -3 42 -9 47 -14z m-1383 -344 c57 -14 118 -26 134 -28 17 -2 40 -9 53 -16
92 -50 227 -73 340 -59 59 7 97 7 121 0 68 -20 156 -33 201 -29 25 1 56 -2 70
-9 14 -7 50 -14 80 -16 l55 -3 -1 37 c-1 33 2 37 25 38 14 0 42 2 61 3 30 2
35 -1 38 -21 5 -31 -27 -80 -39 -61 -6 9 -7 1 -3 -21 4 -19 16 -51 28 -70 21
-34 22 -43 22 -341 -1 -286 -2 -308 -20 -328 -10 -11 -35 -24 -54 -27 -33 -6
-435 21 -475 33 -10 2 -28 16 -41 30 -23 25 -73 41 -151 48 -27 3 -56 -3 -92
-20 -47 -21 -58 -23 -115 -14 -35 6 -126 12 -203 14 -170 5 -197 10 -220 35
-10 11 -24 20 -31 20 -7 0 -16 9 -19 21 -7 20 3 347 10 359 2 3 5 53 6 111 2
104 14 254 25 318 5 33 6 33 48 28 24 -4 90 -18 147 -32z m1361 -174 c0 -14 1
-33 0 -41 -1 -8 4 -31 10 -50 14 -42 12 -239 -3 -292 -9 -35 -31 -50 -43 -30
-8 13 -10 427 -2 440 11 19 36 2 38 -27z m1366 -320 c31 -16 74 -42 94 -57 65
-50 128 -86 176 -100 26 -8 71 -31 99 -50 39 -26 59 -35 77 -30 17 4 65 -15
180 -73 86 -43 166 -87 177 -97 18 -16 19 -29 17 -213 l-3 -196 -90 3 c-97 4
-232 21 -415 52 -127 21 -143 31 -169 108 -39 115 -44 123 -81 142 -58 30 -64
42 -50 99 13 57 1 112 -29 133 -10 7 -23 29 -29 48 -11 38 -26 260 -17 260 3
0 31 -13 63 -29z m-4912 -59 c-24 -184 -34 -427 -18 -434 10 -4 -2 -455 -12
-465 -11 -11 -110 -52 -115 -47 -19 18 28 890 51 938 13 29 51 55 82 56 16 0
18 -5 12 -48z m5788 -158 c9 -3 16 -11 16 -16 0 -9 29 -77 37 -88 7 -8 23 25
23 49 0 21 4 23 33 18 76 -12 147 -58 147 -96 0 -14 6 -14 30 1 17 11 27 9 66
-12 25 -14 59 -40 75 -57 15 -18 31 -33 35 -33 4 0 21 -15 39 -34 25 -27 35
-32 49 -24 23 13 97 -7 131 -36 22 -19 24 -26 19 -73 -4 -28 -10 -56 -14 -63
-12 -19 -92 13 -195 79 -67 43 -95 67 -111 96 -13 26 -31 43 -50 50 -16 5 -52
23 -79 41 -95 58 -159 82 -179 64 -11 -8 -18 -3 -35 23 -11 18 -32 39 -46 47
-18 9 -25 22 -25 42 0 29 6 33 34 22z m-6763 -160 c6 -3 -8 -75 -30 -164 -7
-25 -20 -90 -30 -145 -11 -55 -35 -172 -54 -260 -20 -88 -41 -194 -48 -235 -7
-41 -13 -77 -15 -79 -2 -2 -19 7 -39 19 -24 15 -34 28 -31 39 18 61 61 242 91
383 49 238 43 221 72 213 20 -5 24 -2 21 12 -2 10 -10 17 -16 15 -22 -4 -24
25 -9 90 9 35 18 78 22 95 6 30 9 32 33 27 15 -4 30 -8 33 -10z m2549 -112 c0
-5 -14 -21 -31 -38 -58 -54 -109 -143 -109 -189 0 -54 26 -130 80 -230 50 -94
80 -176 80 -219 0 -39 -46 -97 -103 -130 -59 -34 -151 -64 -300 -96 -111 -23
-130 -25 -143 -13 -21 21 -27 58 -19 111 15 104 25 476 13 530 -4 18 -4 32 2
32 5 0 72 43 149 95 78 52 151 95 163 95 13 0 59 13 103 29 84 30 115 36 115
23z m4378 -26 c73 -46 108 -121 114 -246 l3 -65 -78 1 c-43 1 -81 5 -85 9 -4
3 -9 78 -12 166 -6 177 -6 176 58 135z m-1218 -96 c9 -58 -6 -86 -68 -123 -64
-38 -155 -74 -282 -111 -47 -13 -123 -38 -169 -54 l-84 -30 -23 25 c-29 32
-52 99 -38 113 19 19 427 171 539 201 98 26 119 23 125 -21z m-44 -287 c3 -16
10 -44 14 -63 5 -19 18 -96 30 -170 12 -74 26 -155 31 -180 8 -36 39 -258 39
-280 0 -16 -95 -55 -286 -120 -179 -59 -344 -118 -405 -144 -25 -11 -97 82
-109 141 -5 26 -11 177 -12 336 l-3 287 45 0 c63 0 110 15 227 72 68 33 131
55 193 67 50 10 99 26 110 36 15 14 86 42 112 44 4 1 10 -11 14 -26z m-4170
-130 c-3 -49 -8 -135 -11 -191 -7 -119 -11 -148 -32 -217 -25 -81 -32 -84
-109 -48 -18 8 -55 20 -84 28 -48 13 -57 12 -128 -11 -42 -14 -115 -30 -162
-36 -47 -5 -89 -14 -95 -18 -15 -11 -110 -30 -155 -30 -37 0 -40 2 -40 28 l0
27 -26 -33 c-17 -22 -32 -31 -42 -27 -9 3 -36 -1 -61 -9 -163 -51 -177 -54
-205 -39 -15 8 -34 12 -41 9 -28 -11 -46 19 -56 93 -9 75 -7 91 14 91 7 0 55
20 107 45 51 24 95 43 97 42 1 -2 -4 -21 -12 -42 -8 -22 -14 -48 -15 -57 -1
-37 77 -50 130 -23 16 9 51 18 76 22 45 6 46 6 39 -18 l-8 -24 19 22 c15 17
49 28 157 50 138 27 138 28 132 53 -18 71 -24 75 -107 74 -76 -2 -77 -1 -65
20 7 11 17 24 22 28 6 5 5 8 -2 8 -7 0 -20 -8 -30 -19 -18 -18 -129 -61 -158
-61 -8 0 -15 6 -15 13 0 11 69 43 181 83 20 7 74 31 120 53 46 22 96 42 110
46 24 6 27 3 32 -32 4 -21 7 -80 7 -132 l0 -93 33 5 c17 3 94 15 169 26 200
30 186 24 186 84 1 28 -1 54 -3 57 -2 4 -52 -2 -110 -13 -101 -19 -107 -19
-125 -2 -11 10 -20 24 -20 31 0 7 -18 32 -40 55 -22 23 -40 45 -40 49 0 4 26
14 58 22 31 9 107 33 167 56 155 57 147 59 141 -45z m-1833 -320 c3 -5 0 -51
-5 -103 -6 -52 -10 -131 -10 -175 1 -44 -6 -115 -14 -158 -7 -44 -11 -83 -8
-88 8 -13 72 -11 111 3 18 6 35 9 38 6 4 -3 1 -24 -5 -46 -5 -22 -17 -96 -25
-164 -27 -220 -57 -292 -135 -327 -28 -13 -54 -30 -57 -39 -4 -8 -1 -34 5 -58
9 -34 8 -53 -4 -101 -9 -32 -20 -95 -23 -139 -13 -146 -69 -214 -138 -169 -23
16 -25 21 -19 68 4 29 14 62 22 75 12 17 14 41 10 95 -4 51 -2 80 8 99 11 21
12 28 1 31 -25 10 -22 62 11 196 19 75 34 150 34 166 0 17 14 82 30 145 46
179 64 274 51 278 -6 2 -20 11 -31 20 -19 16 -20 22 -10 71 5 30 16 61 22 69
15 17 38 103 31 114 -2 5 -11 8 -20 8 -25 0 -9 80 23 108 25 22 97 32 107 15z
m4415 -144 c-46 -43 -90 -79 -99 -79 -27 0 -59 44 -62 86 -2 43 -6 42 80 30
40 -5 55 -3 67 9 19 20 78 45 89 38 4 -2 -30 -40 -75 -84z m-1523 -76 c-4 -82
-10 -151 -13 -155 -7 -6 -229 91 -315 138 l-39 20 99 39 c54 21 134 53 178 71
44 18 84 33 89 33 5 1 5 -64 1 -146z m2100 74 c3 -12 7 -35 8 -51 2 -27 -3
-32 -44 -47 -65 -25 -186 -100 -241 -151 -26 -24 -89 -89 -141 -145 -124 -133
-155 -193 -166 -326 -7 -87 -11 -101 -37 -131 -16 -19 -58 -69 -94 -112 -36
-43 -117 -137 -181 -209 -64 -72 -124 -145 -132 -161 -37 -72 -60 -67 -107 25
-33 67 -130 347 -130 378 0 60 95 47 133 -19 21 -35 21 -36 3 -75 -16 -37 -17
-43 -2 -69 8 -16 28 -44 44 -63 l29 -35 59 63 c83 89 91 104 99 186 11 121 79
380 122 464 38 76 175 264 241 334 21 21 82 63 136 93 81 44 108 54 150 55 28
1 65 4 81 8 17 4 60 8 97 9 62 1 68 0 73 -21z m-4557 1 c5 -7 15 -32 21 -56
11 -38 9 -48 -14 -101 -15 -32 -37 -64 -49 -70 -47 -26 -116 32 -116 98 0 48
18 111 33 115 7 2 26 8 42 14 42 14 71 14 83 0z m1202 -108 c109 -35 126 -36
159 -11 18 14 32 17 51 11 15 -4 34 -4 41 1 19 12 159 11 159 -1 0 -14 -55
-40 -85 -40 -19 0 -41 -15 -73 -47 -138 -141 -294 -265 -567 -451 -49 -34
-123 -88 -163 -119 -165 -131 -258 -201 -279 -207 -14 -5 -26 -1 -35 9 -53 64
-99 76 -164 43 -60 -30 -266 -187 -346 -265 l-68 -65 34 -33 c21 -19 50 -35
73 -39 63 -11 73 -16 73 -37 0 -10 -4 -19 -8 -19 -5 0 -8 -10 -8 -22 1 -21 -3
-23 -49 -20 -27 2 -56 8 -63 14 -7 6 -30 14 -53 18 -38 7 -39 7 -23 -11 20
-22 13 -35 -13 -24 -10 5 -23 9 -28 9 -6 1 -30 10 -53 20 -49 22 -57 42 -49
119 4 46 9 56 53 96 27 24 69 57 93 72 32 21 51 44 76 92 17 36 52 91 77 124
60 79 63 96 28 145 -23 32 -27 44 -19 59 12 23 15 23 68 5 39 -14 41 -14 56 7
25 36 18 73 -20 116 -19 21 -35 43 -35 49 0 5 -12 13 -26 16 -19 5 -35 0 -57
-17 -18 -13 -52 -35 -77 -49 -47 -27 -80 -65 -117 -133 -12 -22 -22 -34 -23
-27 0 7 4 20 10 30 10 17 41 158 62 277 6 33 12 61 14 63 1 2 15 -3 31 -11 16
-9 45 -18 65 -22 40 -8 84 -56 74 -82 -5 -11 -2 -14 10 -9 10 4 27 -5 48 -25
30 -30 32 -30 101 -24 39 4 73 9 76 11 8 4 38 120 41 159 l3 30 115 6 c63 3
140 10 170 17 30 6 109 20 175 32 66 12 141 26 168 32 26 5 63 7 83 4 56 -11
75 0 70 37 -3 18 -7 51 -11 75 l-5 42 33 0 c19 0 76 -13 127 -30z m2405 -181
c40 -102 40 -102 -113 -94 -70 4 -136 9 -147 10 -11 1 -57 3 -103 4 -52 1 -81
5 -77 11 4 7 -3 7 -20 0 -28 -11 -40 2 -33 36 4 22 28 31 28 10 0 -20 14 -28
35 -20 10 4 15 14 12 26 -11 41 37 133 55 106 4 -7 5 -25 2 -39 -4 -20 3 -39
27 -73 31 -43 34 -45 51 -29 10 9 18 20 18 25 0 5 14 26 30 47 17 21 36 55 41
77 6 21 16 42 21 45 5 4 40 -11 78 -33 65 -37 68 -42 95 -109z m-1585 97 c17
-1 25 -7 25 -18 0 -10 -4 -18 -9 -17 -5 0 -12 -4 -15 -9 -6 -11 -25 -15 -54
-13 -13 1 -16 7 -11 26 4 15 2 25 -5 25 -6 0 -11 -5 -11 -11 0 -6 -9 -8 -20
-4 -13 4 -20 2 -18 -5 2 -7 -23 -26 -54 -44 -31 -17 -73 -48 -92 -68 -30 -30
-45 -38 -92 -43 -30 -4 -66 -7 -79 -7 -16 0 -51 -27 -108 -82 -73 -70 -84 -85
-80 -107 6 -34 -11 -45 -39 -25 -27 19 -88 21 -110 4 -26 -21 -28 -58 -7 -99
30 -60 26 -82 -23 -106 -24 -11 -71 -44 -105 -73 -61 -51 -88 -96 -76 -126 3
-8 -3 -23 -15 -34 -18 -17 -21 -17 -26 -3 -4 9 -9 13 -13 10 -3 -4 -13 -2 -20
5 -8 7 -43 11 -81 11 -118 -3 -163 28 -132 89 25 47 137 140 317 262 55 38
179 131 275 207 187 149 245 186 303 194 34 4 36 3 24 -13 -21 -26 -41 -63
-36 -68 2 -2 20 14 41 36 24 26 46 40 61 40 14 0 35 11 47 25 12 14 31 25 43
25 11 0 25 4 31 9 11 11 90 19 119 13 11 -3 31 -5 45 -6z m3710 -98 c6 -18 18
-47 25 -65 14 -31 13 -33 -16 -57 -17 -15 -43 -29 -57 -32 -94 -21 -151 -37
-191 -55 -113 -51 -303 -109 -355 -109 -36 0 -71 24 -98 68 l-22 35 30 24 c46
38 70 48 239 101 88 28 207 66 265 85 139 46 164 47 180 5z m-1071 -86 c15
-21 102 -82 117 -82 12 0 57 -57 78 -98 9 -18 28 -38 41 -44 33 -15 37 -33 20
-75 -35 -82 -8 -109 97 -97 32 4 58 3 58 -1 0 -4 -13 -30 -28 -58 -69 -124
-126 -209 -211 -312 -97 -118 -197 -249 -523 -685 -290 -389 -369 -476 -418
-463 -50 13 -162 192 -176 281 -9 58 -4 66 253 397 245 315 350 471 411 610
37 83 45 114 49 180 5 73 2 90 -32 190 -20 61 -40 119 -45 130 -17 41 -20 57
-13 68 5 7 10 -2 13 -23 5 -31 13 -39 85 -81 91 -52 125 -92 125 -150 0 -41
-19 -59 -61 -59 -19 0 -21 -4 -16 -37 8 -58 47 -154 73 -180 54 -54 108 -10
149 120 22 70 23 78 10 138 -7 35 -23 89 -35 119 -42 105 -80 228 -80 256 l1
29 22 -26 c12 -14 28 -35 36 -47z m-2336 -8 c109 -6 127 -9 127 -24 0 -9 -5
-21 -12 -28 -19 -19 1 -30 62 -34 58 -3 63 2 44 46 -6 17 -4 18 22 12 71 -17
246 -36 454 -51 323 -22 450 -37 450 -51 0 -11 -53 -146 -80 -206 -16 -34 -81
-67 -146 -74 l-49 -6 -77 71 c-84 76 -105 89 -188 116 -30 10 -72 33 -92 51
-55 49 -187 78 -281 61 -34 -6 -78 -3 -145 8 -53 9 -135 21 -182 26 -47 6
-103 12 -126 15 -37 4 -41 7 -51 46 l-11 41 77 -7 c42 -3 133 -9 204 -12z
m-354 -19 c2 -2 1 -11 -2 -20 -9 -21 -36 -19 -32 3 1 9 0 12 -2 5 -2 -6 -16
-16 -31 -22 -15 -7 -36 -24 -46 -38 -18 -25 -18 -27 -1 -39 23 -17 104 -34
160 -34 38 0 52 -6 87 -37 37 -33 40 -34 25 -11 -9 15 -17 30 -17 33 0 9 113
-6 124 -16 5 -5 4 -14 -4 -24 -7 -8 -8 -15 -2 -15 5 0 15 7 22 15 18 21 40 19
40 -5 0 -28 -40 -46 -69 -31 -26 14 -54 -2 -97 -56 -39 -49 -53 -63 -66 -63
-5 0 -51 39 -101 88 -51 48 -111 102 -134 120 l-42 33 18 32 c25 45 109 99
141 91 14 -3 27 -7 29 -9z m5659 -30 c35 -8 83 -24 107 -35 37 -17 51 -18 94
-10 29 5 106 7 174 3 l122 -6 63 -85 c73 -99 90 -155 51 -168 -51 -16 -364 1
-394 22 -13 9 -48 14 -101 14 -174 0 -260 74 -224 193 19 64 29 87 37 87 5 0
36 -7 71 -15z m-2143 -226 c3 -4 -8 -41 -23 -81 -16 -40 -35 -94 -42 -120 -16
-62 -31 -74 -69 -58 -36 15 -47 9 -66 -37 -22 -52 -156 -217 -312 -386 -40
-43 -73 -84 -73 -90 0 -7 21 -23 46 -35 l46 -23 31 20 c40 24 84 72 172 181
38 47 98 118 133 158 57 64 67 71 81 58 26 -22 81 -24 159 -6 62 15 74 15 79
4 7 -19 -12 -45 -91 -127 -35 -37 -86 -99 -112 -138 -42 -64 -46 -74 -41 -113
7 -45 -12 -86 -38 -86 -18 0 -55 -53 -55 -78 0 -42 27 -54 104 -49 39 3 94 11
121 17 72 16 124 19 131 9 3 -6 13 -8 22 -5 10 3 33 7 52 10 66 10 108 35 162
98 118 137 268 284 362 355 l99 74 26 -24 c58 -55 76 -60 164 -54 45 3 90 9
100 12 28 11 21 -29 -18 -104 -45 -85 -150 -225 -279 -371 -113 -128 -159
-186 -330 -409 -129 -169 -295 -360 -424 -489 -97 -96 -122 -144 -153 -288
-12 -54 -23 -105 -25 -111 -6 -22 -37 -14 -86 22 -58 43 -78 99 -78 224 0 117
-14 199 -45 282 -22 57 -33 73 -59 84 -17 8 -118 23 -224 35 -106 11 -241 30
-300 41 l-106 19 -52 -26 c-31 -16 -109 -80 -196 -163 -177 -167 -283 -256
-305 -256 -19 0 -59 89 -69 152 -6 38 -5 39 138 184 135 138 162 170 264 309
196 267 383 510 509 660 183 220 373 490 427 607 27 61 71 106 113 116 32 8
125 5 130 -4z m-3722 -12 c70 -30 189 -152 250 -258 37 -64 35 -84 -13 -114
-42 -27 -55 -31 -45 -15 3 6 2 10 -4 10 -6 0 -31 13 -57 30 -26 16 -51 27 -55
24 -5 -3 -18 0 -29 6 -16 8 -20 8 -20 -4 0 -8 4 -17 9 -20 4 -3 7 -18 5 -33
-1 -16 5 -36 14 -47 12 -14 13 -17 2 -11 -50 30 -120 122 -120 158 0 14 -7 28
-16 31 -31 12 -135 6 -164 -9 -34 -18 -36 -22 -15 -46 15 -15 13 -21 -22 -62
-21 -25 -43 -46 -49 -46 -6 -1 -19 15 -30 34 -10 19 -24 37 -32 40 -26 10 -97
-61 -122 -122 -13 -32 -40 -83 -60 -113 -20 -30 -39 -68 -43 -85 -14 -72 -24
-85 -66 -85 -33 0 -51 -9 -98 -46 -59 -48 -83 -72 -83 -86 0 -4 10 -16 21 -27
18 -16 31 -19 64 -14 28 3 52 0 73 -11 43 -22 61 -20 72 9 5 14 13 25 18 25
11 0 49 -29 38 -30 -4 0 -1 -11 8 -25 27 -41 21 -55 -23 -55 -22 0 -43 5 -46
10 -4 6 -24 -9 -47 -35 -110 -125 -674 -555 -728 -555 -5 0 -12 25 -16 56 -6
51 -4 58 23 92 17 20 40 38 52 40 26 4 73 -13 112 -39 14 -10 29 -16 32 -13 3
3 3 32 0 64 -6 57 -5 58 25 74 41 21 58 20 83 -5 l21 -21 -7 21 c-7 24 -3 26
26 9 17 -11 22 -10 35 7 11 15 13 34 8 80 -4 33 -9 63 -11 68 -7 13 -47 7 -93
-14 -61 -27 -90 -57 -90 -90 0 -37 -13 -43 -42 -19 -25 19 -25 19 -64 0 -70
-35 -113 -77 -112 -110 1 -42 -6 -45 -35 -16 -32 32 -38 32 -94 4 -37 -19 -43
-26 -38 -45 12 -48 25 -70 70 -121 26 -29 44 -57 39 -61 -5 -4 -29 -15 -54
-25 -25 -10 -52 -22 -60 -27 -81 -48 -207 -104 -290 -129 -108 -32 -140 -36
-140 -20 0 5 -9 14 -20 20 -16 9 -35 4 -96 -25 -42 -19 -85 -35 -95 -35 -10 0
-33 -9 -51 -19 -48 -28 -152 -44 -265 -39 -95 4 -101 6 -171 47 l-72 44 76 39
c42 21 78 37 80 35 2 -2 -17 -19 -43 -37 -26 -19 -41 -36 -35 -38 7 -2 32 14
57 36 26 23 82 54 137 77 51 21 107 48 123 60 17 12 55 32 85 44 330 139 485
215 775 384 365 212 521 331 831 638 132 129 275 278 320 330 94 111 227 221
299 249 61 23 58 23 98 7z m403 -274 c13 -17 14 -17 7 1 -6 18 -1 18 78 14 92
-5 167 -31 199 -70 l18 -23 -57 -21 c-31 -12 -80 -25 -109 -29 -29 -4 -52 -11
-52 -16 0 -4 17 -35 38 -67 21 -33 58 -102 81 -154 l44 -96 61 15 c45 11 119
14 281 14 121 -1 254 3 295 9 41 5 101 13 133 16 l58 7 -12 -26 c-6 -14 -21
-28 -33 -31 -13 -4 -30 -26 -44 -56 -17 -36 -31 -52 -49 -57 -37 -9 -282 14
-394 37 -52 11 -117 20 -145 20 -57 0 -68 -9 -103 -77 -12 -24 -24 -43 -26
-43 -11 0 -85 162 -79 172 4 6 3 8 -3 5 -6 -4 -18 13 -28 36 -9 23 -21 51 -26
62 -4 11 -33 83 -64 160 -30 77 -65 157 -76 178 -21 38 -17 50 7 20z m1884
-12 c0 -17 82 -93 111 -103 16 -5 29 -15 29 -22 0 -19 -74 -119 -363 -495 -33
-42 -82 -107 -109 -144 -28 -37 -56 -66 -62 -64 -17 5 -52 73 -75 144 -19 56
-20 67 -7 96 18 43 132 201 225 313 42 50 110 134 151 187 67 85 100 115 100
88z m-5125 -68 l48 -6 -5 -116 c-2 -64 -3 -124 0 -134 4 -18 112 -77 139 -77
6 0 19 -7 28 -16 18 -18 17 -39 -10 -274 -8 -69 -19 -168 -24 -220 -6 -52 -15
-110 -22 -128 -11 -32 -11 -32 -81 -32 -38 0 -77 -4 -87 -9 -10 -6 -32 -43
-51 -83 -28 -64 -128 -235 -152 -262 -4 -6 -157 138 -360 340 -194 193 -366
360 -381 372 -30 22 -37 55 -22 101 l7 24 182 -7 c99 -3 258 -7 351 -8 l170
-3 3 45 c5 92 33 367 44 433 l11 67 82 0 c45 0 104 -3 130 -7z m1397 -83 c8
-111 14 -116 155 -124 106 -6 153 -10 175 -14 4 -1 10 -25 14 -52 6 -42 10
-50 24 -45 13 4 25 -4 40 -25 12 -16 17 -30 11 -30 -5 0 -13 5 -16 10 -9 14
-39 13 -115 -5 -36 -8 -83 -17 -104 -20 l-39 -6 7 -95 6 -94 -78 0 c-75 0 -80
-2 -105 -30 -38 -43 -101 -81 -140 -87 -30 -4 -38 0 -57 27 -24 33 -24 33 4
159 19 85 22 153 11 233 -6 44 -4 66 9 100 27 68 133 168 177 168 13 0 17 -14
21 -70z m2916 -59 c2 -46 1 -47 -105 -57 -72 -7 -143 0 -143 14 0 5 16 9 35
10 70 5 108 24 117 59 7 26 14 32 41 35 40 4 53 -10 55 -61z m-1568 29 c50
-26 113 -104 139 -175 36 -95 51 -356 31 -514 -14 -109 -82 -300 -117 -329
-71 -59 -115 -83 -161 -89 -41 -5 -52 -2 -78 20 -44 37 -130 200 -150 282 -9
39 -30 114 -47 168 -16 53 -28 99 -26 101 4 4 119 17 154 17 27 0 42 -23 50
-79 10 -64 27 -93 72 -120 21 -13 49 -41 62 -63 34 -53 56 -58 93 -22 73 69
104 174 96 317 -5 68 -12 96 -38 147 -17 35 -43 77 -57 93 -34 41 -174 145
-194 146 -9 0 -45 -41 -84 -95 -64 -90 -95 -116 -95 -77 0 36 62 121 140 193
114 104 141 114 210 79z m-4044 -16 c82 -8 181 -21 219 -29 39 -7 95 -16 125
-20 30 -3 129 -17 220 -30 91 -13 182 -25 203 -27 32 -2 42 -8 54 -33 9 -16
32 -53 51 -82 54 -81 48 -86 -110 -78 -351 16 -621 37 -653 51 -19 8 -56 14
-83 14 -53 0 -81 -20 -101 -73 -27 -71 -71 -261 -71 -307 0 -59 6 -67 133
-164 42 -32 126 -108 186 -170 60 -61 215 -216 345 -345 207 -206 258 -264
244 -275 -1 -2 -187 0 -413 3 -408 7 -410 7 -462 -15 -80 -34 -138 -79 -195
-150 -28 -35 -53 -62 -55 -61 -2 2 8 36 22 75 24 69 26 92 40 460 16 410 15
405 46 607 10 72 31 235 45 364 22 202 41 301 57 301 3 0 71 -7 153 -16z
m5190 -18 c11 -8 33 -16 49 -18 19 -2 31 -10 33 -20 3 -15 -4 -18 -40 -19 -24
-1 -54 -4 -68 -6 -14 -3 -65 -5 -115 -4 -94 0 -115 10 -115 53 0 21 13 23 43
6 12 -7 40 -13 62 -15 74 -6 85 -8 85 -15 0 -5 5 -8 12 -8 9 0 9 3 0 12 -23
23 -15 37 28 47 3 0 15 -5 26 -13z m-5736 -156 c5 -57 15 -109 20 -114 6 -6
10 -45 10 -88 l0 -78 -27 11 c-15 6 -31 16 -35 22 -13 19 4 368 17 355 2 -2 9
-50 15 -108z m5004 -132 c13 -84 20 -208 20 -373 l1 -180 -33 -76 c-44 -102
-93 -146 -127 -113 -19 20 -19 40 0 48 8 3 29 27 45 53 l30 47 -23 21 c-21 18
-47 56 -47 68 0 6 60 -15 79 -27 25 -16 31 17 31 175 l0 157 -47 9 -48 10 45
9 c42 9 45 12 52 49 4 22 5 66 2 98 -6 61 11 83 20 25z m-2452 -40 c44 -26 67
-32 138 -38 47 -3 91 -9 97 -13 13 -8 17 -32 38 -187 21 -159 24 -146 -47
-169 -35 -10 -103 -38 -151 -61 -48 -24 -89 -41 -91 -39 -1 2 5 42 15 89 27
135 10 327 -37 407 -14 24 -23 43 -20 43 3 0 29 -14 58 -32z m7023 -283 c-6
-88 -53 -416 -61 -424 -6 -6 -23 16 -103 134 -90 133 -121 187 -121 213 0 12
29 56 65 99 35 43 97 118 137 168 l73 90 8 -95 c4 -52 5 -135 2 -185z m-7245
225 c0 -5 -31 -72 -70 -147 -71 -141 -102 -236 -115 -361 -6 -56 -18 -82 -31
-69 -3 3 1 56 10 119 8 62 17 131 20 153 22 165 58 264 108 295 35 21 78 27
78 10z m2927 -228 c18 -37 48 -85 68 -107 27 -31 35 -49 35 -78 0 -34 -3 -38
-30 -43 -42 -9 -53 -25 -40 -60 6 -16 20 -38 30 -49 10 -11 20 -31 22 -45 3
-23 -1 -25 -37 -28 -22 -2 -43 -8 -46 -14 -4 -6 -5 -44 -2 -83 7 -84 0 -93
-51 -68 -34 16 -37 16 -56 -2 -11 -10 -20 -24 -20 -30 0 -7 -9 -24 -20 -38
-19 -23 -39 -32 -199 -88 -30 -11 -75 -35 -99 -54 -25 -19 -69 -44 -98 -55
-72 -26 -134 -67 -134 -86 0 -21 31 -72 47 -78 7 -3 40 8 72 25 56 28 64 29
139 23 66 -6 89 -3 141 15 33 11 85 21 114 21 62 0 145 -27 152 -51 3 -9 -6
-75 -20 -145 -22 -116 -32 -143 -96 -269 -80 -156 -216 -388 -249 -423 -22
-23 -23 -23 -174 -15 -83 4 -242 8 -354 8 -111 0 -202 3 -202 7 0 3 35 36 79
72 90 75 110 100 175 216 l48 85 -7 70 c-4 39 -8 88 -10 110 -6 65 -57 196
-85 216 -14 11 -56 26 -95 35 -38 9 -106 28 -150 43 -70 23 -94 26 -187 24
-90 -2 -108 0 -108 12 0 24 -49 29 -140 16 -149 -23 -217 -24 -242 -7 -20 15
-24 14 -43 -4 -20 -18 -41 -21 -238 -27 l-217 -6 0 22 c0 18 -4 22 -17 16 -69
-29 -116 -45 -120 -41 -7 7 134 167 175 199 82 63 166 93 178 63 9 -24 196
-66 294 -66 73 0 97 11 135 63 33 45 106 95 145 99 24 3 25 0 26 -47 1 -43 4
-52 29 -66 24 -15 32 -16 68 -3 54 19 57 18 101 -21 49 -45 77 -52 115 -29 21
12 33 30 40 58 12 49 34 82 48 73 6 -4 14 -22 17 -41 4 -19 14 -45 24 -57 10
-13 26 -50 35 -81 10 -32 21 -58 25 -59 4 0 17 -2 28 -5 12 -2 47 10 78 26 67
36 86 37 151 6 48 -23 51 -23 72 -6 13 10 38 21 58 24 19 4 37 11 41 17 13 21
22 142 13 167 -12 32 -7 36 33 24 85 -26 102 -23 180 28 90 59 176 144 211
208 34 63 57 160 57 245 0 38 5 99 11 138 16 91 33 91 76 1z m265 33 c20 -4
39 -13 41 -20 6 -14 96 -69 103 -62 3 2 -1 16 -7 31 -10 20 -10 29 -1 38 15
15 24 6 26 -26 2 -35 20 -33 47 7 12 17 24 34 25 36 6 7 139 9 151 2 10 -5 9
-15 -7 -46 -11 -21 -17 -41 -14 -44 7 -7 43 40 44 55 0 6 6 17 14 23 11 9 18
5 35 -21 11 -18 26 -41 33 -51 20 -28 -7 -38 -82 -32 -36 3 -75 5 -87 5 -13 0
-23 6 -23 14 0 8 -7 17 -15 20 -11 4 -15 0 -13 -12 2 -11 -4 -17 -17 -17 -11
0 -24 -3 -30 -6 -22 -12 -75 -10 -75 3 0 10 -2 10 -8 1 -5 -8 -41 -15 -88 -18
l-80 -6 -27 66 c-33 79 -33 79 -4 72 12 -3 39 -9 59 -12z m706 -7 c17 -5 33
-15 33 -21 1 -7 3 -25 5 -42 5 -46 -10 -55 -96 -55 -42 0 -80 3 -84 7 -3 4 8
22 26 40 17 18 28 36 23 40 -4 5 -10 3 -12 -4 -7 -18 -43 -63 -52 -63 -4 0
-13 11 -19 25 -6 14 -18 25 -26 25 -14 0 -26 21 -26 45 0 23 155 25 228 3z
m-5392 -24 c23 -13 149 -128 280 -255 305 -296 344 -336 344 -356 0 -8 -13
-30 -29 -49 -16 -18 -42 -55 -57 -81 -15 -26 -28 -49 -30 -51 -1 -2 -28 25
-60 59 -33 34 -196 199 -365 368 -322 323 -371 377 -350 390 6 4 60 6 119 3
89 -3 114 -8 148 -28z m-936 -175 c-6 -74 -15 -172 -20 -219 -6 -47 -17 -170
-25 -275 -9 -104 -20 -226 -26 -270 -5 -44 -14 -132 -19 -195 -5 -63 -12 -148
-16 -187 l-7 -73 32 -1 c17 -1 36 -2 43 -3 14 -1 19 24 47 244 39 314 51 416
66 575 9 88 20 187 26 220 6 33 14 94 19 135 18 165 35 172 43 18 11 -191 25
-329 37 -343 11 -14 3 -257 -20 -605 -5 -74 -9 -181 -9 -237 -1 -71 -6 -115
-18 -144 l-16 -41 -121 5 c-147 6 -193 18 -202 53 -6 22 16 405 32 564 37 378
57 572 74 710 12 91 21 174 22 185 0 11 2 15 5 8 3 -8 11 -8 31 2 14 8 28 13
29 11 2 -2 -1 -64 -7 -137z m6345 -209 c246 -15 283 -20 308 -42 12 -11 16
-17 10 -13 -7 3 -25 -3 -40 -15 -26 -18 -34 -19 -83 -10 -30 6 -72 8 -93 4
-33 -5 -41 -13 -73 -69 -19 -35 -36 -76 -37 -92 -2 -25 5 -31 52 -55 52 -27
101 -36 101 -20 0 4 34 38 76 76 70 64 76 67 89 50 19 -27 24 -15 15 35 -9 53
0 90 17 69 12 -14 33 -84 33 -109 0 -10 -16 -21 -40 -29 -48 -16 -51 -35 -9
-58 52 -29 57 -35 64 -84 l6 -48 -183 1 c-101 0 -259 6 -352 12 l-168 12 -30
35 c-38 46 -68 109 -68 143 0 39 -24 43 -78 14 -34 -18 -52 -23 -64 -16 -21
12 -48 82 -51 134 l-2 39 47 7 c26 4 53 11 60 15 36 23 251 29 493 14z m1229
-209 c3 -5 57 -21 120 -36 113 -27 155 -28 244 -10 48 11 119 -12 142 -46 24
-32 46 -167 56 -335 l7 -115 -29 -30 c-109 -116 -443 -265 -805 -360 -92 -24
-129 -38 -144 -56 -26 -30 -131 -52 -150 -31 -10 11 -28 152 -51 415 l-6 71
153 149 c166 161 287 270 384 345 64 50 71 53 79 39z m-1999 -100 c22 -10 64
-44 93 -75 37 -39 60 -56 78 -56 40 0 94 -27 94 -47 0 -11 7 -46 15 -78 12
-46 24 -68 54 -95 57 -51 72 -97 70 -205 0 -49 2 -107 6 -127 11 -58 0 -83
-49 -111 -57 -32 -73 -20 -45 34 27 54 24 75 -21 167 -22 45 -49 110 -60 146
-22 69 -32 79 -154 155 -35 22 -56 42 -56 53 0 25 48 118 60 118 6 0 10 5 10
10 0 6 -8 10 -17 10 -10 0 -41 9 -70 20 l-51 19 -63 -24 c-35 -14 -71 -25 -82
-25 -17 0 -17 2 3 30 27 38 107 100 129 100 9 0 34 -9 56 -19z m-3685 -146 c7
-8 18 -15 25 -15 7 0 16 -11 19 -25 6 -23 66 -88 74 -80 2 2 -4 15 -14 30 -26
39 -8 47 66 28 66 -16 334 -25 375 -12 66 21 75 20 75 -5 0 -13 -6 -28 -12
-34 -17 -14 -78 -24 -161 -27 -37 -1 -70 -5 -74 -8 -3 -4 -57 -7 -120 -7 -84
0 -113 3 -113 13 0 6 -9 1 -19 -12 -15 -19 -30 -25 -76 -29 -52 -4 -57 -3 -52
12 5 13 2 17 -11 15 -25 -3 -80 20 -86 37 -12 30 45 134 74 134 9 0 23 -7 30
-15z m7490 -56 c0 -56 -13 -75 -66 -99 -84 -36 -147 -22 -179 40 -29 57 -22
68 48 73 34 2 78 9 97 15 19 5 50 10 68 11 31 1 32 0 32 -40z m-3288 -35 c37
-19 48 -17 48 7 0 21 3 21 121 17 118 -4 122 -5 141 -31 24 -33 42 -35 36 -4
-4 21 -1 24 38 26 32 1 45 -3 53 -16 9 -15 12 -15 20 -4 11 17 85 31 103 19
18 -12 -13 -35 -67 -49 -22 -6 -61 -29 -87 -51 -44 -36 -48 -44 -48 -83 0 -24
5 -47 11 -51 6 -3 38 9 72 27 130 69 136 71 171 65 52 -10 83 -49 111 -141 14
-44 25 -84 25 -87 0 -3 -28 3 -62 14 -58 18 -79 19 -268 13 -360 -13 -333 -14
-348 17 -7 15 -24 58 -37 95 -14 37 -47 104 -75 149 -27 45 -50 84 -50 87 0 9
61 -4 92 -19z m3433 -119 c4 -30 5 -65 1 -77 -7 -28 -174 -257 -197 -271 -9
-6 -23 -7 -32 -4 -13 5 -14 11 -2 49 21 70 37 99 99 183 32 44 70 101 85 127
14 26 29 48 33 48 4 0 10 -25 13 -55z m-5708 13 c-29 -114 -39 -242 -32 -394
l7 -162 -74 -13 c-138 -26 -2916 -8 -2964 19 -14 7 -20 19 -18 34 18 128 58
369 64 378 5 8 63 14 171 17 119 4 172 9 194 20 43 22 506 35 662 18 37 -4 69
-3 81 4 11 6 123 15 248 21 126 5 288 15 359 21 72 6 209 12 305 13 96 1 308
10 470 19 566 32 533 32 527 5z m-3171 -33 c27 -35 27 -35 19 -158 -7 -128
-33 -249 -63 -301 -27 -47 -75 -68 -149 -64 -53 3 -67 8 -93 33 -26 25 -30 35
-30 85 0 59 38 188 79 267 40 80 139 164 203 172 4 1 19 -15 34 -34z m3676
-212 c45 -51 57 -135 30 -196 -22 -47 -154 -187 -160 -169 -2 6 13 39 33 74
45 77 78 201 69 263 -6 48 3 57 28 28z m1113 -97 c18 -27 30 -113 21 -149 -8
-34 -158 -187 -183 -187 -12 0 -25 11 -31 25 -13 28 3 69 58 150 15 22 44 73
64 113 20 39 41 72 46 72 5 0 17 -11 25 -24z m1321 -60 c11 -8 37 -17 57 -21
45 -9 54 -24 59 -95 l3 -55 -55 1 c-30 1 -81 2 -112 3 -38 1 -72 -4 -100 -17
-66 -29 -98 -35 -98 -18 0 8 -18 18 -44 25 -29 7 -57 24 -83 52 -48 49 -74 47
-101 -9 -19 -40 -39 -52 -48 -28 -9 24 21 63 67 86 44 23 63 21 119 -14 19
-11 50 -26 67 -32 29 -10 37 -9 75 17 24 15 68 48 98 73 62 50 67 52 96 32z
m-887 -76 c22 -11 48 -31 59 -45 11 -14 26 -23 34 -20 8 3 21 -2 29 -12 13
-15 14 -39 9 -138 -4 -66 -13 -138 -20 -159 -15 -46 -195 -318 -243 -367 -19
-19 -58 -51 -88 -70 -50 -32 -59 -34 -126 -32 -91 3 -125 18 -192 84 -89 89
-251 348 -251 403 0 24 36 56 62 56 19 0 47 -55 37 -71 -5 -8 -9 -36 -9 -62 0
-97 126 -299 207 -333 30 -13 34 -12 64 15 42 39 36 57 -45 149 -61 70 -104
152 -90 174 3 5 27 -3 52 -19 81 -47 120 -63 155 -63 45 0 55 13 72 96 14 67
43 110 69 101 5 -2 18 -39 29 -83 19 -80 48 -124 84 -124 22 0 83 65 83 89 0
11 -9 45 -21 76 -24 65 -20 91 19 137 41 48 66 94 59 110 -5 15 -56 28 -108
28 -30 0 -63 30 -41 38 10 3 8 8 -5 18 -17 13 -17 15 1 29 27 21 69 19 115 -5z
m3711 -186 c0 -9 -57 -89 -72 -102 -38 -31 -272 -32 -359 0 -30 11 -57 76 -35
84 24 9 123 -35 129 -57 5 -18 11 -20 39 -14 61 13 135 42 174 69 27 18 52 26
81 26 24 0 43 -3 43 -6z m-6940 -124 c0 -6 -25 -58 -56 -117 -49 -93 -55 -111
-50 -147 13 -94 87 -195 144 -197 15 -1 38 -4 51 -8 l25 -7 -35 -32 c-39 -37
-56 -39 -107 -13 -56 29 -111 89 -123 135 -22 88 -32 107 -72 140 -43 35 -95
55 -199 76 -45 9 -58 16 -58 29 0 39 139 107 193 95 22 -4 34 0 53 17 26 25
77 35 177 38 33 0 57 -3 57 -9z m553 -86 c3 -4 -2 -23 -12 -43 -22 -43 -41
-127 -41 -181 0 -26 13 -64 41 -115 22 -42 38 -79 35 -82 -10 -11 -75 19 -113
52 -60 52 -71 89 -62 212 9 110 24 149 62 156 36 7 83 7 90 1z m3569 -34 c16
-20 19 -34 14 -68 -11 -83 -32 -97 -103 -67 -48 20 -71 42 -88 82 -13 31 -17
33 -61 33 -39 0 -53 -6 -85 -35 -38 -34 -69 -45 -69 -25 0 21 29 67 52 82 36
23 52 25 192 24 123 -2 129 -3 148 -26z m-2066 5 c3 -8 1 -38 -6 -67 -6 -29
-18 -101 -25 -160 -8 -59 -19 -126 -26 -149 -12 -40 -14 -41 -48 -35 -115 19
-145 27 -153 38 -14 23 -9 82 14 146 19 54 20 67 9 97 -6 19 -14 59 -17 89
l-6 56 126 0 c102 0 128 -3 132 -15z m-1889 -55 c-12 -107 -44 -152 -97 -135
-16 5 -20 15 -20 50 0 69 26 123 64 134 59 17 59 17 53 -49z m560 -42 c51 -68
63 -91 63 -122 0 -36 -29 -103 -47 -110 -26 -10 -75 26 -101 74 -20 38 -23 54
-18 107 10 118 41 133 103 51z m748 -40 c53 -109 45 -152 -31 -178 -71 -25
-128 44 -104 124 19 63 62 126 87 126 8 0 29 -32 48 -72z m5315 53 c0 -7 -46
-64 -78 -98 -56 -58 -73 -62 -262 -67 -58 -1 -123 -5 -145 -9 -50 -9 -70 3
-61 36 10 42 38 66 116 99 54 23 97 33 155 38 90 6 275 7 275 1z m-681 -68
c-27 -78 -145 -192 -220 -214 -21 -7 -41 -10 -43 -8 -3 2 -8 28 -12 56 l-7 53
44 19 c24 10 82 42 128 70 98 60 125 65 110 24z m-6409 -84 c0 -12 -22 -46
-50 -76 -27 -30 -50 -59 -50 -65 0 -6 9 -26 21 -44 18 -29 26 -34 60 -34 26 0
46 7 60 21 l20 20 107 -52 c97 -47 115 -52 192 -56 47 -3 89 -9 94 -14 6 -5
-6 -31 -27 -64 -42 -62 -47 -63 -142 -39 -33 9 -86 22 -119 30 -32 8 -69 22
-82 31 -15 9 -55 17 -102 20 -68 4 -81 8 -107 33 -17 16 -47 32 -70 36 -48 8
-176 52 -189 65 -16 14 25 38 65 39 50 0 100 19 124 46 25 29 164 124 182 124
7 0 13 -9 13 -21z m1380 -30 c14 -22 35 -55 47 -72 25 -36 63 -103 63 -112 0
-9 -138 -5 -166 5 -25 10 -26 13 -20 58 8 60 37 162 45 162 4 0 18 -18 31 -41z
m2226 3 c6 -4 17 -18 24 -31 10 -19 10 -25 -1 -32 -8 -5 -9 -9 -3 -9 6 0 14 3
17 6 4 4 46 8 94 9 49 0 111 7 140 15 41 11 58 11 78 2 35 -16 65 -15 100 5
23 12 58 16 150 17 l119 1 15 -63 c11 -49 12 -65 3 -74 -14 -14 -633 -52 -687
-43 -22 4 -41 19 -69 57 -51 69 -52 73 -25 113 26 37 28 39 45 27z m2364 -129
c0 -21 -4 -43 -8 -49 -4 -6 -49 -14 -99 -17 l-93 -7 0 39 c0 40 0 40 48 46 26
4 63 11 82 15 66 15 70 13 70 -27z m-5322 -47 c6 -13 14 -56 18 -95 7 -71 4
-78 -30 -72 -5 1 -5 -6 -1 -16 18 -44 17 -53 -2 -53 -52 0 -113 14 -113 25 0
11 16 49 81 193 21 48 31 52 47 18z m2217 4 c4 -6 27 -21 53 -34 54 -28 87
-60 77 -76 -4 -7 2 -14 14 -17 28 -7 27 -19 -14 -97 -43 -83 -44 -108 -6 -135
16 -12 33 -21 39 -21 5 0 25 26 44 58 51 82 59 100 72 151 9 39 15 46 37 49
28 3 39 -15 39 -71 0 -41 23 -88 74 -154 25 -32 46 -64 46 -70 0 -9 -19 -13
-57 -14 -116 -1 -169 -36 -156 -102 4 -22 11 -27 34 -27 15 0 31 -5 34 -11 5
-6 13 -2 22 11 9 13 23 20 36 18 17 -2 23 -11 25 -39 4 -46 -21 -59 -54 -28
l-22 21 -4 -24 c-2 -19 -10 -24 -39 -26 -23 -2 -42 3 -51 12 -11 10 -18 12
-26 4 -7 -7 -25 -6 -58 6 -26 9 -61 16 -78 16 -20 0 -57 17 -101 45 -38 25
-74 45 -80 45 -6 0 -29 -13 -51 -30 -52 -39 -86 -39 -128 4 -32 31 -37 33 -87
29 -30 -3 -75 -13 -102 -24 -55 -23 -87 -14 -87 25 0 30 -42 40 -89 20 -45
-19 -68 -18 -80 4 -5 9 -11 15 -13 13 -7 -9 -50 12 -73 35 -30 30 -63 30 -112
2 -44 -24 -92 -25 -110 -1 -10 12 -31 17 -80 19 -75 2 -147 20 -164 41 -16 18
8 130 33 155 23 23 55 10 83 -33 21 -33 51 -49 90 -49 21 0 24 5 29 58 4 31
10 86 14 122 l7 65 83 2 c97 3 98 1 52 -101 -31 -70 -45 -127 -37 -149 3 -9
18 -12 52 -8 l47 6 18 57 c10 31 30 78 44 103 23 39 31 45 60 45 17 0 40 -6
50 -13 15 -11 16 -20 6 -81 -9 -58 -8 -72 5 -93 17 -26 42 -27 56 -3 5 8 32
63 59 123 38 82 55 107 69 107 32 0 31 -12 -4 -86 -18 -38 -36 -89 -40 -112
-6 -39 -4 -47 20 -72 26 -27 29 -28 55 -15 27 14 50 59 50 96 0 27 117 169
139 169 10 0 35 -7 55 -15 28 -12 36 -21 38 -43 3 -54 -3 -84 -24 -112 -22
-31 -38 -133 -22 -142 5 -3 28 -1 52 4 54 12 61 28 73 168 8 88 12 108 30 123
18 14 20 24 15 62 -7 42 3 60 19 35z m1298 -120 c14 -11 31 -36 37 -56 10 -29
9 -39 -5 -60 -21 -32 -112 -74 -168 -76 -142 -7 -180 11 -170 80 7 49 20 54
34 12 12 -34 25 -38 34 -11 7 23 83 87 133 113 47 23 73 23 105 -2z m-3174 4
l62 -7 -7 -41 c-3 -23 -10 -48 -14 -56 -7 -12 1 -15 46 -14 l54 1 26 49 c38
73 47 79 83 64 24 -9 32 -20 37 -49 10 -60 10 -61 64 -61 47 0 50 2 64 34 12
29 58 66 81 66 3 0 5 -29 3 -65 -2 -36 -7 -65 -12 -65 -5 0 -4 -6 1 -12 16
-20 23 -62 14 -77 -11 -17 -107 -8 -172 15 -23 7 -51 14 -64 14 -12 0 -35 13
-51 30 -33 34 -54 38 -54 11 0 -32 -26 -44 -82 -38 -62 8 -77 20 -60 47 14 22
9 25 -17 11 -12 -7 -31 -5 -57 4 -54 19 -64 18 -64 -6 0 -16 -4 -19 -21 -14
-11 4 -35 9 -52 11 -105 13 -128 28 -109 69 10 22 15 23 37 15 24 -9 27 -7 40
24 8 19 20 36 27 39 19 8 126 8 197 1z m2433 -4 c10 0 22 -8 25 -17 4 -10 14
-23 22 -30 14 -10 13 -15 -7 -42 -29 -39 -13 -40 24 -2 15 17 31 28 36 25 4
-3 8 -1 8 3 0 15 41 34 61 28 26 -8 26 -64 -1 -97 -32 -41 -72 -53 -135 -39
-63 14 -110 59 -121 116 -10 53 0 69 37 61 18 -3 40 -6 51 -6z m458 -280 c49
0 51 -12 10 -61 -31 -38 -174 -120 -207 -118 -10 0 -13 3 -5 6 6 2 12 10 12
17 0 11 61 137 83 173 6 10 14 10 37 -2 16 -8 47 -15 70 -15z"/>
<path d="M4049 3357 c-40 -50 -41 -55 -29 -92 13 -40 42 -50 112 -37 26 5 58
7 72 5 38 -8 40 14 6 67 -60 93 -116 114 -161 57z"/>
<path d="M3309 2842 c-49 -18 -79 -38 -79 -53 0 -15 50 -87 64 -92 7 -3 35 0
62 7 l49 11 -5 40 c-6 41 -31 106 -40 104 -3 0 -26 -8 -51 -17z"/>
<path d="M3098 2725 c-51 -27 -63 -49 -54 -101 6 -31 9 -33 39 -27 18 3 49 14
70 25 34 17 37 22 37 61 0 42 -13 67 -34 67 -6 -1 -32 -12 -58 -25z"/>
<path d="M5113 2001 c-83 -60 -99 -101 -64 -169 31 -60 64 -84 121 -90 64 -6
73 12 39 75 l-24 45 35 29 c19 16 37 29 41 29 4 0 11 9 14 21 8 23 -15 53 -57
75 -39 20 -60 17 -105 -15z"/>
<path d="M6474 2199 c-31 -16 -47 -70 -34 -117 12 -47 24 -58 70 -66 69 -13
129 50 115 121 -11 60 -89 92 -151 62z"/>
<path d="M723 2018 c-41 -46 -47 -69 -48 -190 0 -100 3 -119 19 -137 25 -27
29 -27 71 11 46 40 70 88 85 166 10 55 9 67 -9 106 -29 67 -80 86 -118 44z"/>
</g>
</svg>
